<?xml version="1.0" standalone="no"?>
<!DOCTYPE svg PUBLIC "-//W3C//DTD SVG 20010904//EN"
 "http://www.w3.org/TR/2001/REC-SVG-20010904/DTD/svg10.dtd">
<svg version="1.0" xmlns="http://www.w3.org/2000/svg"
 width="130.000000pt" height="130.000000pt" viewBox="0 0 130.000000 130.000000"
 preserveAspectRatio="xMidYMid meet">
<metadata>
Created by potrace 1.14, written by Peter Selinger 2001-2017
</metadata>
<g transform="translate(0.000000,130.000000) scale(0.100000,-0.100000)"
fill="#000000" stroke="none">
<path d="M580 1217 c-50 -31 -132 -45 -199 -35 -31 5 -60 13 -65 18 -4 4 -31
-5 -60 -23 -28 -16 -63 -37 -78 -44 -33 -17 -34 -21 -9 -92 36 -102 36 -101
30 -411 -1 -52 0 -102 2 -110 10 -32 39 -76 66 -101 29 -28 127 -81 135 -74 7
7 129 -38 179 -66 l45 -26 33 23 c29 20 151 62 222 78 50 11 122 70 148 122
28 54 34 148 17 254 -5 30 -8 60 -8 65 11 138 20 183 52 265 19 48 19 51 2 57
-9 4 -19 9 -22 13 -3 3 -31 21 -63 39 -50 28 -62 32 -85 22 -71 -28 -182 -17
-258 25 -24 13 -44 24 -46 23 -2 0 -19 -10 -38 -22z"/>
<path d="M129 535 c-1 -8 -3 -19 -4 -25 -1 -5 -3 -24 -4 -41 l-1 -31 -60 4
c-33 2 -60 1 -60 -3 0 -4 20 -33 44 -65 43 -59 76 -92 153 -152 27 -21 40 -38
36 -48 -3 -10 9 -20 41 -34 25 -12 48 -21 51 -21 2 0 25 -8 50 -19 25 -11 48
-19 50 -19 3 0 24 -3 48 -7 149 -27 275 -17 427 32 89 29 121 49 114 68 -3 9
6 22 23 33 74 47 159 138 206 219 4 8 -11 10 -52 7 -43 -3 -58 -1 -58 9 -2 27
-13 91 -16 95 -2 2 -16 -16 -32 -39 -33 -51 -128 -144 -157 -153 -13 -5 -18
-13 -15 -25 6 -25 -17 -43 -83 -63 -73 -22 -118 -28 -198 -29 -91 0 -134 7
-225 39 -71 24 -78 29 -72 50 4 17 -1 25 -19 35 -55 30 -166 154 -166 187 0
17 -20 13 -21 -4z"/>
</g>
</svg>
